<?xml version="1.0" encoding="utf-8" standalone="no"?>
<!DOCTYPE svg PUBLIC "-//W3C//DTD SVG 1.1//EN"
  "http://www.w3.org/Graphics/SVG/1.1/DTD/svg11.dtd">
<svg xmlns:xlink="http://www.w3.org/1999/xlink" width="1000.8pt" height="568.8pt" viewBox="0 0 1000.8 568.8" xmlns="http://www.w3.org/2000/svg" version="1.1">
 <metadata>
  <rdf:RDF xmlns:dc="http://purl.org/dc/elements/1.1/" xmlns:cc="http://creativecommons.org/ns#" xmlns:rdf="http://www.w3.org/1999/02/22-rdf-syntax-ns#">
   <cc:Work>
    <dc:type rdf:resource="http://purl.org/dc/dcmitype/StillImage"/>
    <dc:date>2025-08-30T08:19:46.975185</dc:date>
    <dc:format>image/svg+xml</dc:format>
    <dc:creator>
     <cc:Agent>
      <dc:title>Matplotlib v3.6.3, https://matplotlib.org/</dc:title>
     </cc:Agent>
    </dc:creator>
   </cc:Work>
  </rdf:RDF>
 </metadata>
 <defs>
  <style type="text/css">*{stroke-linejoin: round; stroke-linecap: butt}</style>
 </defs>
 <g id="figure_1">
  <g id="patch_1">
   <path d="M 0 568.8 
L 1000.8 568.8 
L 1000.8 0 
L 0 0 
z
" style="fill: #ffffff"/>
  </g>
  <g id="axes_1">
   <g id="patch_2">
    <path d="M 45.246857 230.346 
L 307.347429 230.346 
Q 311.574857 230.346 311.574857 226.188 
L 311.574857 65.412 
Q 311.574857 61.254 307.347429 61.254 
L 45.246857 61.254 
Q 41.019429 61.254 41.019429 65.412 
L 41.019429 226.188 
Q 41.019429 230.346 45.246857 230.346 
z
" clip-path="url(#p8b90977791)" style="fill: #f2f2f2; stroke: #000000; stroke-width: 1.2; stroke-linejoin: miter"/>
   </g>
   <g id="patch_3">
    <path d="M 362.304 174.906 
L 610.313143 174.906 
Q 614.540571 174.906 614.540571 170.748 
L 614.540571 93.132 
Q 614.540571 88.974 610.313143 88.974 
L 362.304 88.974 
Q 358.076571 88.974 358.076571 93.132 
L 358.076571 170.748 
Q 358.076571 174.906 362.304 174.906 
z
" clip-path="url(#p8b90977791)" style="fill: #e8f3ff; stroke: #000000; stroke-width: 1.2; stroke-linejoin: miter"/>
   </g>
   <g id="patch_4">
    <path d="M 672.315429 174.906 
L 948.507429 174.906 
Q 952.734857 174.906 952.734857 170.748 
L 952.734857 93.132 
Q 952.734857 88.974 948.507429 88.974 
L 672.315429 88.974 
Q 668.088 88.974 668.088 93.132 
L 668.088 170.748 
Q 668.088 174.906 672.315429 174.906 
z
" clip-path="url(#p8b90977791)" style="fill: #fff4e8; stroke: #000000; stroke-width: 1.2; stroke-linejoin: miter"/>
   </g>
   <g id="patch_5">
    <path d="M 312.089267 145.25944 
Q 334.825618 138.870027 356.270361 132.843585 
" clip-path="url(#p8b90977791)" style="fill: none; stroke: #000000; stroke-width: 1.2; stroke-linecap: round"/>
    <path d="M 349.682486 131.578713 
L 356.270361 132.843585 
L 351.305738 137.354962 
L 349.682486 131.578713 
z
" clip-path="url(#p8b90977791)" style="stroke: #000000; stroke-width: 1.2; stroke-linecap: round"/>
   </g>
   <g id="patch_6">
    <path d="M 615.130237 131.94 
Q 641.313225 131.94 666.154572 131.94 
" clip-path="url(#p8b90977791)" style="fill: none; stroke: #000000; stroke-width: 1.2; stroke-linecap: round"/>
    <path d="M 660.154572 128.94 
L 666.154572 131.94 
L 660.154572 134.94 
L 660.154572 128.94 
z
" clip-path="url(#p8b90977791)" style="stroke: #000000; stroke-width: 1.2; stroke-linecap: round"/>
   </g>
   <g id="patch_7">
    <path d="M 446.852571 313.506 
L 666.678857 313.506 
Q 670.906286 313.506 670.906286 309.348 
L 670.906286 245.592 
Q 670.906286 241.434 666.678857 241.434 
L 446.852571 241.434 
Q 442.625143 241.434 442.625143 245.592 
L 442.625143 309.348 
Q 442.625143 313.506 446.852571 313.506 
z
" clip-path="url(#p8b90977791)" style="fill: #f2f2f2; stroke: #000000; stroke-width: 1.2; stroke-linejoin: miter"/>
   </g>
   <g id="patch_8">
    <path d="M 714.589714 313.506 
L 934.416 313.506 
Q 938.643429 313.506 938.643429 309.348 
L 938.643429 245.592 
Q 938.643429 241.434 934.416 241.434 
L 714.589714 241.434 
Q 710.362286 241.434 710.362286 245.592 
L 710.362286 309.348 
Q 710.362286 313.506 714.589714 313.506 
z
" clip-path="url(#p8b90977791)" style="fill: #f2f2f2; stroke: #000000; stroke-width: 1.2; stroke-linejoin: miter"/>
   </g>
   <g id="patch_9">
    <path d="M 808.480136 174.04766 
Q 683.588901 208.16991 559.991871 241.938563 
" clip-path="url(#p8b90977791)" style="fill: none; stroke: #000000; stroke-width: 1.2; stroke-linecap: round"/>
    <path d="M 566.570404 243.25116 
L 559.991871 241.938563 
L 564.989068 237.463295 
L 566.570404 243.25116 
z
" clip-path="url(#p8b90977791)" style="stroke: #000000; stroke-width: 1.2; stroke-linecap: round"/>
   </g>
   <g id="patch_10">
    <path d="M 810.809642 175.478368 
Q 817.456919 208.1689 823.836858 239.544695 
" clip-path="url(#p8b90977791)" style="fill: none; stroke: #000000; stroke-width: 1.2; stroke-linecap: round"/>
    <path d="M 825.581126 233.067232 
L 823.836858 239.544695 
L 819.701449 234.262803 
L 825.581126 233.067232 
z
" clip-path="url(#p8b90977791)" style="stroke: #000000; stroke-width: 1.2; stroke-linecap: round"/>
   </g>
   <g id="patch_11">
    <path d="M 489.126857 493.686 
L 934.416 493.686 
Q 938.643429 493.686 938.643429 489.528 
L 938.643429 356.472 
Q 938.643429 352.314 934.416 352.314 
L 489.126857 352.314 
Q 484.899429 352.314 484.899429 356.472 
L 484.899429 489.528 
Q 484.899429 493.686 489.126857 493.686 
z
" clip-path="url(#p8b90977791)" style="fill: #f2f2f2; stroke: #000000; stroke-width: 1.2; stroke-linejoin: miter"/>
   </g>
   <g id="patch_12">
    <path d="M 556.765714 314.122357 
Q 556.765714 332.913524 556.765714 350.363051 
" clip-path="url(#p8b90977791)" style="fill: none; stroke: #000000; stroke-width: 1.2; stroke-linecap: round"/>
    <path d="M 559.765714 344.363051 
L 556.765714 350.363051 
L 553.765714 344.363051 
L 559.765714 344.363051 
z
" clip-path="url(#p8b90977791)" style="stroke: #000000; stroke-width: 1.2; stroke-linecap: round"/>
   </g>
   <g id="patch_13">
    <path d="M 825.145331 314.015768 
Q 831.548442 332.909619 837.520929 350.532815 
" clip-path="url(#p8b90977791)" style="fill: none; stroke: #000000; stroke-width: 1.2; stroke-linecap: round"/>
    <path d="M 838.436391 343.887371 
L 837.520929 350.532815 
L 832.753851 345.813179 
L 838.436391 343.887371 
z
" clip-path="url(#p8b90977791)" style="stroke: #000000; stroke-width: 1.2; stroke-linecap: round"/>
   </g>
   <g id="text_1">
    <!-- Producers -->
    <g style="fill: #333333" transform="translate(151.538549 126.16375) scale(0.1 -0.1)">
     <defs>
      <path id="DejaVuSans-50" d="M 1259 4147 
L 1259 2394 
L 2053 2394 
Q 2494 2394 2734 2622 
Q 2975 2850 2975 3272 
Q 2975 3691 2734 3919 
Q 2494 4147 2053 4147 
L 1259 4147 
z
M 628 4666 
L 2053 4666 
Q 2838 4666 3239 4311 
Q 3641 3956 3641 3272 
Q 3641 2581 3239 2228 
Q 2838 1875 2053 1875 
L 1259 1875 
L 1259 0 
L 628 0 
L 628 4666 
z
" transform="scale(0.015625)"/>
      <path id="DejaVuSans-72" d="M 2631 2963 
Q 2534 3019 2420 3045 
Q 2306 3072 2169 3072 
Q 1681 3072 1420 2755 
Q 1159 2438 1159 1844 
L 1159 0 
L 581 0 
L 581 3500 
L 1159 3500 
L 1159 2956 
Q 1341 3275 1631 3429 
Q 1922 3584 2338 3584 
Q 2397 3584 2469 3576 
Q 2541 3569 2628 3553 
L 2631 2963 
z
" transform="scale(0.015625)"/>
      <path id="DejaVuSans-6f" d="M 1959 3097 
Q 1497 3097 1228 2736 
Q 959 2375 959 1747 
Q 959 1119 1226 758 
Q 1494 397 1959 397 
Q 2419 397 2687 759 
Q 2956 1122 2956 1747 
Q 2956 2369 2687 2733 
Q 2419 3097 1959 3097 
z
M 1959 3584 
Q 2709 3584 3137 3096 
Q 3566 2609 3566 1747 
Q 3566 888 3137 398 
Q 2709 -91 1959 -91 
Q 1206 -91 779 398 
Q 353 888 353 1747 
Q 353 2609 779 3096 
Q 1206 3584 1959 3584 
z
" transform="scale(0.015625)"/>
      <path id="DejaVuSans-64" d="M 2906 2969 
L 2906 4863 
L 3481 4863 
L 3481 0 
L 2906 0 
L 2906 525 
Q 2725 213 2448 61 
Q 2172 -91 1784 -91 
Q 1150 -91 751 415 
Q 353 922 353 1747 
Q 353 2572 751 3078 
Q 1150 3584 1784 3584 
Q 2172 3584 2448 3432 
Q 2725 3281 2906 2969 
z
M 947 1747 
Q 947 1113 1208 752 
Q 1469 391 1925 391 
Q 2381 391 2643 752 
Q 2906 1113 2906 1747 
Q 2906 2381 2643 2742 
Q 2381 3103 1925 3103 
Q 1469 3103 1208 2742 
Q 947 2381 947 1747 
z
" transform="scale(0.015625)"/>
      <path id="DejaVuSans-75" d="M 544 1381 
L 544 3500 
L 1119 3500 
L 1119 1403 
Q 1119 906 1312 657 
Q 1506 409 1894 409 
Q 2359 409 2629 706 
Q 2900 1003 2900 1516 
L 2900 3500 
L 3475 3500 
L 3475 0 
L 2900 0 
L 2900 538 
Q 2691 219 2414 64 
Q 2138 -91 1772 -91 
Q 1169 -91 856 284 
Q 544 659 544 1381 
z
M 1991 3584 
L 1991 3584 
z
" transform="scale(0.015625)"/>
      <path id="DejaVuSans-63" d="M 3122 3366 
L 3122 2828 
Q 2878 2963 2633 3030 
Q 2388 3097 2138 3097 
Q 1578 3097 1268 2742 
Q 959 2388 959 1747 
Q 959 1106 1268 751 
Q 1578 397 2138 397 
Q 2388 397 2633 464 
Q 2878 531 3122 666 
L 3122 134 
Q 2881 22 2623 -34 
Q 2366 -91 2075 -91 
Q 1284 -91 818 406 
Q 353 903 353 1747 
Q 353 2603 823 3093 
Q 1294 3584 2113 3584 
Q 2378 3584 2631 3529 
Q 2884 3475 3122 3366 
z
" transform="scale(0.015625)"/>
      <path id="DejaVuSans-65" d="M 3597 1894 
L 3597 1613 
L 953 1613 
Q 991 1019 1311 708 
Q 1631 397 2203 397 
Q 2534 397 2845 478 
Q 3156 559 3463 722 
L 3463 178 
Q 3153 47 2828 -22 
Q 2503 -91 2169 -91 
Q 1331 -91 842 396 
Q 353 884 353 1716 
Q 353 2575 817 3079 
Q 1281 3584 2069 3584 
Q 2775 3584 3186 3129 
Q 3597 2675 3597 1894 
z
M 3022 2063 
Q 3016 2534 2758 2815 
Q 2500 3097 2075 3097 
Q 1594 3097 1305 2825 
Q 1016 2553 972 2059 
L 3022 2063 
z
" transform="scale(0.015625)"/>
      <path id="DejaVuSans-73" d="M 2834 3397 
L 2834 2853 
Q 2591 2978 2328 3040 
Q 2066 3103 1784 3103 
Q 1356 3103 1142 2972 
Q 928 2841 928 2578 
Q 928 2378 1081 2264 
Q 1234 2150 1697 2047 
L 1894 2003 
Q 2506 1872 2764 1633 
Q 3022 1394 3022 966 
Q 3022 478 2636 193 
Q 2250 -91 1575 -91 
Q 1294 -91 989 -36 
Q 684 19 347 128 
L 347 722 
Q 666 556 975 473 
Q 1284 391 1588 391 
Q 1994 391 2212 530 
Q 2431 669 2431 922 
Q 2431 1156 2273 1281 
Q 2116 1406 1581 1522 
L 1381 1569 
Q 847 1681 609 1914 
Q 372 2147 372 2553 
Q 372 3047 722 3315 
Q 1072 3584 1716 3584 
Q 2034 3584 2315 3537 
Q 2597 3491 2834 3397 
z
" transform="scale(0.015625)"/>
     </defs>
     <use xlink:href="#DejaVuSans-50"/>
     <use xlink:href="#DejaVuSans-72" x="58.552734"/>
     <use xlink:href="#DejaVuSans-6f" x="97.416016"/>
     <use xlink:href="#DejaVuSans-64" x="158.597656"/>
     <use xlink:href="#DejaVuSans-75" x="222.074219"/>
     <use xlink:href="#DejaVuSans-63" x="285.453125"/>
     <use xlink:href="#DejaVuSans-65" x="340.433594"/>
     <use xlink:href="#DejaVuSans-72" x="401.957031"/>
     <use xlink:href="#DejaVuSans-73" x="443.070312"/>
    </g>
    <!-- • ED Systems -->
    <g style="fill: #333333" transform="translate(141.910424 137.361562) scale(0.1 -0.1)">
     <defs>
      <path id="DejaVuSans-2022" d="M 959 2381 
Q 959 2769 1229 3036 
Q 1500 3303 1894 3303 
Q 2281 3303 2548 3036 
Q 2816 2769 2816 2381 
Q 2816 1991 2547 1722 
Q 2278 1453 1888 1453 
Q 1497 1453 1228 1722 
Q 959 1991 959 2381 
z
" transform="scale(0.015625)"/>
      <path id="DejaVuSans-20" transform="scale(0.015625)"/>
      <path id="DejaVuSans-45" d="M 628 4666 
L 3578 4666 
L 3578 4134 
L 1259 4134 
L 1259 2753 
L 3481 2753 
L 3481 2222 
L 1259 2222 
L 1259 531 
L 3634 531 
L 3634 0 
L 628 0 
L 628 4666 
z
" transform="scale(0.015625)"/>
      <path id="DejaVuSans-44" d="M 1259 4147 
L 1259 519 
L 2022 519 
Q 2988 519 3436 956 
Q 3884 1394 3884 2338 
Q 3884 3275 3436 3711 
Q 2988 4147 2022 4147 
L 1259 4147 
z
M 628 4666 
L 1925 4666 
Q 3281 4666 3915 4102 
Q 4550 3538 4550 2338 
Q 4550 1131 3912 565 
Q 3275 0 1925 0 
L 628 0 
L 628 4666 
z
" transform="scale(0.015625)"/>
      <path id="DejaVuSans-53" d="M 3425 4513 
L 3425 3897 
Q 3066 4069 2747 4153 
Q 2428 4238 2131 4238 
Q 1616 4238 1336 4038 
Q 1056 3838 1056 3469 
Q 1056 3159 1242 3001 
Q 1428 2844 1947 2747 
L 2328 2669 
Q 3034 2534 3370 2195 
Q 3706 1856 3706 1288 
Q 3706 609 3251 259 
Q 2797 -91 1919 -91 
Q 1588 -91 1214 -16 
Q 841 59 441 206 
L 441 856 
Q 825 641 1194 531 
Q 1563 422 1919 422 
Q 2459 422 2753 634 
Q 3047 847 3047 1241 
Q 3047 1584 2836 1778 
Q 2625 1972 2144 2069 
L 1759 2144 
Q 1053 2284 737 2584 
Q 422 2884 422 3419 
Q 422 4038 858 4394 
Q 1294 4750 2059 4750 
Q 2388 4750 2728 4690 
Q 3069 4631 3425 4513 
z
" transform="scale(0.015625)"/>
      <path id="DejaVuSans-79" d="M 2059 -325 
Q 1816 -950 1584 -1140 
Q 1353 -1331 966 -1331 
L 506 -1331 
L 506 -850 
L 844 -850 
Q 1081 -850 1212 -737 
Q 1344 -625 1503 -206 
L 1606 56 
L 191 3500 
L 800 3500 
L 1894 763 
L 2988 3500 
L 3597 3500 
L 2059 -325 
z
" transform="scale(0.015625)"/>
      <path id="DejaVuSans-74" d="M 1172 4494 
L 1172 3500 
L 2356 3500 
L 2356 3053 
L 1172 3053 
L 1172 1153 
Q 1172 725 1289 603 
Q 1406 481 1766 481 
L 2356 481 
L 2356 0 
L 1766 0 
Q 1100 0 847 248 
Q 594 497 594 1153 
L 594 3053 
L 172 3053 
L 172 3500 
L 594 3500 
L 594 4494 
L 1172 4494 
z
" transform="scale(0.015625)"/>
      <path id="DejaVuSans-6d" d="M 3328 2828 
Q 3544 3216 3844 3400 
Q 4144 3584 4550 3584 
Q 5097 3584 5394 3201 
Q 5691 2819 5691 2113 
L 5691 0 
L 5113 0 
L 5113 2094 
Q 5113 2597 4934 2840 
Q 4756 3084 4391 3084 
Q 3944 3084 3684 2787 
Q 3425 2491 3425 1978 
L 3425 0 
L 2847 0 
L 2847 2094 
Q 2847 2600 2669 2842 
Q 2491 3084 2119 3084 
Q 1678 3084 1418 2786 
Q 1159 2488 1159 1978 
L 1159 0 
L 581 0 
L 581 3500 
L 1159 3500 
L 1159 2956 
Q 1356 3278 1631 3431 
Q 1906 3584 2284 3584 
Q 2666 3584 2933 3390 
Q 3200 3197 3328 2828 
z
" transform="scale(0.015625)"/>
     </defs>
     <use xlink:href="#DejaVuSans-2022"/>
     <use xlink:href="#DejaVuSans-20" x="58.984375"/>
     <use xlink:href="#DejaVuSans-45" x="90.771484"/>
     <use xlink:href="#DejaVuSans-44" x="153.955078"/>
     <use xlink:href="#DejaVuSans-20" x="230.957031"/>
     <use xlink:href="#DejaVuSans-53" x="262.744141"/>
     <use xlink:href="#DejaVuSans-79" x="326.220703"/>
     <use xlink:href="#DejaVuSans-73" x="385.400391"/>
     <use xlink:href="#DejaVuSans-74" x="437.5"/>
     <use xlink:href="#DejaVuSans-65" x="476.708984"/>
     <use xlink:href="#DejaVuSans-6d" x="538.232422"/>
     <use xlink:href="#DejaVuSans-73" x="635.644531"/>
    </g>
    <!-- • GP PMS -->
    <g style="fill: #333333" transform="translate(152.777612 148.559375) scale(0.1 -0.1)">
     <defs>
      <path id="DejaVuSans-47" d="M 3809 666 
L 3809 1919 
L 2778 1919 
L 2778 2438 
L 4434 2438 
L 4434 434 
Q 4069 175 3628 42 
Q 3188 -91 2688 -91 
Q 1594 -91 976 548 
Q 359 1188 359 2328 
Q 359 3472 976 4111 
Q 1594 4750 2688 4750 
Q 3144 4750 3555 4637 
Q 3966 4525 4313 4306 
L 4313 3634 
Q 3963 3931 3569 4081 
Q 3175 4231 2741 4231 
Q 1884 4231 1454 3753 
Q 1025 3275 1025 2328 
Q 1025 1384 1454 906 
Q 1884 428 2741 428 
Q 3075 428 3337 486 
Q 3600 544 3809 666 
z
" transform="scale(0.015625)"/>
      <path id="DejaVuSans-4d" d="M 628 4666 
L 1569 4666 
L 2759 1491 
L 3956 4666 
L 4897 4666 
L 4897 0 
L 4281 0 
L 4281 4097 
L 3078 897 
L 2444 897 
L 1241 4097 
L 1241 0 
L 628 0 
L 628 4666 
z
" transform="scale(0.015625)"/>
     </defs>
     <use xlink:href="#DejaVuSans-2022"/>
     <use xlink:href="#DejaVuSans-20" x="58.984375"/>
     <use xlink:href="#DejaVuSans-47" x="90.771484"/>
     <use xlink:href="#DejaVuSans-50" x="168.261719"/>
     <use xlink:href="#DejaVuSans-20" x="228.564453"/>
     <use xlink:href="#DejaVuSans-50" x="260.351562"/>
     <use xlink:href="#DejaVuSans-4d" x="320.654297"/>
     <use xlink:href="#DejaVuSans-53" x="406.933594"/>
    </g>
    <!-- • Lab LIS -->
    <g style="fill: #333333" transform="translate(153.710424 159.757187) scale(0.1 -0.1)">
     <defs>
      <path id="DejaVuSans-4c" d="M 628 4666 
L 1259 4666 
L 1259 531 
L 3531 531 
L 3531 0 
L 628 0 
L 628 4666 
z
" transform="scale(0.015625)"/>
      <path id="DejaVuSans-61" d="M 2194 1759 
Q 1497 1759 1228 1600 
Q 959 1441 959 1056 
Q 959 750 1161 570 
Q 1363 391 1709 391 
Q 2188 391 2477 730 
Q 2766 1069 2766 1631 
L 2766 1759 
L 2194 1759 
z
M 3341 1997 
L 3341 0 
L 2766 0 
L 2766 531 
Q 2569 213 2275 61 
Q 1981 -91 1556 -91 
Q 1019 -91 701 211 
Q 384 513 384 1019 
Q 384 1609 779 1909 
Q 1175 2209 1959 2209 
L 2766 2209 
L 2766 2266 
Q 2766 2663 2505 2880 
Q 2244 3097 1772 3097 
Q 1472 3097 1187 3025 
Q 903 2953 641 2809 
L 641 3341 
Q 956 3463 1253 3523 
Q 1550 3584 1831 3584 
Q 2591 3584 2966 3190 
Q 3341 2797 3341 1997 
z
" transform="scale(0.015625)"/>
      <path id="DejaVuSans-62" d="M 3116 1747 
Q 3116 2381 2855 2742 
Q 2594 3103 2138 3103 
Q 1681 3103 1420 2742 
Q 1159 2381 1159 1747 
Q 1159 1113 1420 752 
Q 1681 391 2138 391 
Q 2594 391 2855 752 
Q 3116 1113 3116 1747 
z
M 1159 2969 
Q 1341 3281 1617 3432 
Q 1894 3584 2278 3584 
Q 2916 3584 3314 3078 
Q 3713 2572 3713 1747 
Q 3713 922 3314 415 
Q 2916 -91 2278 -91 
Q 1894 -91 1617 61 
Q 1341 213 1159 525 
L 1159 0 
L 581 0 
L 581 4863 
L 1159 4863 
L 1159 2969 
z
" transform="scale(0.015625)"/>
      <path id="DejaVuSans-49" d="M 628 4666 
L 1259 4666 
L 1259 0 
L 628 0 
L 628 4666 
z
" transform="scale(0.015625)"/>
     </defs>
     <use xlink:href="#DejaVuSans-2022"/>
     <use xlink:href="#DejaVuSans-20" x="58.984375"/>
     <use xlink:href="#DejaVuSans-4c" x="90.771484"/>
     <use xlink:href="#DejaVuSans-61" x="146.484375"/>
     <use xlink:href="#DejaVuSans-62" x="207.763672"/>
     <use xlink:href="#DejaVuSans-20" x="271.240234"/>
     <use xlink:href="#DejaVuSans-4c" x="303.027344"/>
     <use xlink:href="#DejaVuSans-49" x="358.740234"/>
     <use xlink:href="#DejaVuSans-53" x="388.232422"/>
    </g>
    <!-- • Immunisation Register -->
    <g style="fill: #333333" transform="translate(115.39558 170.955) scale(0.1 -0.1)">
     <defs>
      <path id="DejaVuSans-6e" d="M 3513 2113 
L 3513 0 
L 2938 0 
L 2938 2094 
Q 2938 2591 2744 2837 
Q 2550 3084 2163 3084 
Q 1697 3084 1428 2787 
Q 1159 2491 1159 1978 
L 1159 0 
L 581 0 
L 581 3500 
L 1159 3500 
L 1159 2956 
Q 1366 3272 1645 3428 
Q 1925 3584 2291 3584 
Q 2894 3584 3203 3211 
Q 3513 2838 3513 2113 
z
" transform="scale(0.015625)"/>
      <path id="DejaVuSans-69" d="M 603 3500 
L 1178 3500 
L 1178 0 
L 603 0 
L 603 3500 
z
M 603 4863 
L 1178 4863 
L 1178 4134 
L 603 4134 
L 603 4863 
z
" transform="scale(0.015625)"/>
      <path id="DejaVuSans-52" d="M 2841 2188 
Q 3044 2119 3236 1894 
Q 3428 1669 3622 1275 
L 4263 0 
L 3584 0 
L 2988 1197 
Q 2756 1666 2539 1819 
Q 2322 1972 1947 1972 
L 1259 1972 
L 1259 0 
L 628 0 
L 628 4666 
L 2053 4666 
Q 2853 4666 3247 4331 
Q 3641 3997 3641 3322 
Q 3641 2881 3436 2590 
Q 3231 2300 2841 2188 
z
M 1259 4147 
L 1259 2491 
L 2053 2491 
Q 2509 2491 2742 2702 
Q 2975 2913 2975 3322 
Q 2975 3731 2742 3939 
Q 2509 4147 2053 4147 
L 1259 4147 
z
" transform="scale(0.015625)"/>
      <path id="DejaVuSans-67" d="M 2906 1791 
Q 2906 2416 2648 2759 
Q 2391 3103 1925 3103 
Q 1463 3103 1205 2759 
Q 947 2416 947 1791 
Q 947 1169 1205 825 
Q 1463 481 1925 481 
Q 2391 481 2648 825 
Q 2906 1169 2906 1791 
z
M 3481 434 
Q 3481 -459 3084 -895 
Q 2688 -1331 1869 -1331 
Q 1566 -1331 1297 -1286 
Q 1028 -1241 775 -1147 
L 775 -588 
Q 1028 -725 1275 -790 
Q 1522 -856 1778 -856 
Q 2344 -856 2625 -561 
Q 2906 -266 2906 331 
L 2906 616 
Q 2728 306 2450 153 
Q 2172 0 1784 0 
Q 1141 0 747 490 
Q 353 981 353 1791 
Q 353 2603 747 3093 
Q 1141 3584 1784 3584 
Q 2172 3584 2450 3431 
Q 2728 3278 2906 2969 
L 2906 3500 
L 3481 3500 
L 3481 434 
z
" transform="scale(0.015625)"/>
     </defs>
     <use xlink:href="#DejaVuSans-2022"/>
     <use xlink:href="#DejaVuSans-20" x="58.984375"/>
     <use xlink:href="#DejaVuSans-49" x="90.771484"/>
     <use xlink:href="#DejaVuSans-6d" x="120.263672"/>
     <use xlink:href="#DejaVuSans-6d" x="217.675781"/>
     <use xlink:href="#DejaVuSans-75" x="315.087891"/>
     <use xlink:href="#DejaVuSans-6e" x="378.466797"/>
     <use xlink:href="#DejaVuSans-69" x="441.845703"/>
     <use xlink:href="#DejaVuSans-73" x="469.628906"/>
     <use xlink:href="#DejaVuSans-61" x="521.728516"/>
     <use xlink:href="#DejaVuSans-74" x="583.007812"/>
     <use xlink:href="#DejaVuSans-69" x="622.216797"/>
     <use xlink:href="#DejaVuSans-6f" x="650"/>
     <use xlink:href="#DejaVuSans-6e" x="711.181641"/>
     <use xlink:href="#DejaVuSans-20" x="774.560547"/>
     <use xlink:href="#DejaVuSans-52" x="806.347656"/>
     <use xlink:href="#DejaVuSans-65" x="871.330078"/>
     <use xlink:href="#DejaVuSans-67" x="932.853516"/>
     <use xlink:href="#DejaVuSans-69" x="996.330078"/>
     <use xlink:href="#DejaVuSans-73" x="1024.113281"/>
     <use xlink:href="#DejaVuSans-74" x="1076.212891"/>
     <use xlink:href="#DejaVuSans-65" x="1115.421875"/>
     <use xlink:href="#DejaVuSans-72" x="1176.945312"/>
    </g>
   </g>
   <g id="text_2">
    <!-- NZHEB Gateway -->
    <g style="fill: #333333" transform="translate(445.116384 129.100469) scale(0.1 -0.1)">
     <defs>
      <path id="DejaVuSans-4e" d="M 628 4666 
L 1478 4666 
L 3547 763 
L 3547 4666 
L 4159 4666 
L 4159 0 
L 3309 0 
L 1241 3903 
L 1241 0 
L 628 0 
L 628 4666 
z
" transform="scale(0.015625)"/>
      <path id="DejaVuSans-5a" d="M 359 4666 
L 4025 4666 
L 4025 4184 
L 1075 531 
L 4097 531 
L 4097 0 
L 288 0 
L 288 481 
L 3238 4134 
L 359 4134 
L 359 4666 
z
" transform="scale(0.015625)"/>
      <path id="DejaVuSans-48" d="M 628 4666 
L 1259 4666 
L 1259 2753 
L 3553 2753 
L 3553 4666 
L 4184 4666 
L 4184 0 
L 3553 0 
L 3553 2222 
L 1259 2222 
L 1259 0 
L 628 0 
L 628 4666 
z
" transform="scale(0.015625)"/>
      <path id="DejaVuSans-42" d="M 1259 2228 
L 1259 519 
L 2272 519 
Q 2781 519 3026 730 
Q 3272 941 3272 1375 
Q 3272 1813 3026 2020 
Q 2781 2228 2272 2228 
L 1259 2228 
z
M 1259 4147 
L 1259 2741 
L 2194 2741 
Q 2656 2741 2882 2914 
Q 3109 3088 3109 3444 
Q 3109 3797 2882 3972 
Q 2656 4147 2194 4147 
L 1259 4147 
z
M 628 4666 
L 2241 4666 
Q 2963 4666 3353 4366 
Q 3744 4066 3744 3513 
Q 3744 3084 3544 2831 
Q 3344 2578 2956 2516 
Q 3422 2416 3680 2098 
Q 3938 1781 3938 1306 
Q 3938 681 3513 340 
Q 3088 0 2303 0 
L 628 0 
L 628 4666 
z
" transform="scale(0.015625)"/>
      <path id="DejaVuSans-77" d="M 269 3500 
L 844 3500 
L 1563 769 
L 2278 3500 
L 2956 3500 
L 3675 769 
L 4391 3500 
L 4966 3500 
L 4050 0 
L 3372 0 
L 2619 2869 
L 1863 0 
L 1184 0 
L 269 3500 
z
" transform="scale(0.015625)"/>
     </defs>
     <use xlink:href="#DejaVuSans-4e"/>
     <use xlink:href="#DejaVuSans-5a" x="74.804688"/>
     <use xlink:href="#DejaVuSans-48" x="143.310547"/>
     <use xlink:href="#DejaVuSans-45" x="218.505859"/>
     <use xlink:href="#DejaVuSans-42" x="281.689453"/>
     <use xlink:href="#DejaVuSans-20" x="350.292969"/>
     <use xlink:href="#DejaVuSans-47" x="382.080078"/>
     <use xlink:href="#DejaVuSans-61" x="459.570312"/>
     <use xlink:href="#DejaVuSans-74" x="520.849609"/>
     <use xlink:href="#DejaVuSans-65" x="560.058594"/>
     <use xlink:href="#DejaVuSans-77" x="621.582031"/>
     <use xlink:href="#DejaVuSans-61" x="703.369141"/>
     <use xlink:href="#DejaVuSans-79" x="764.648438"/>
    </g>
    <!-- (API Key • CloudEvents • JSON Schema • Zero-PHI) -->
    <g style="fill: #333333" transform="translate(358.579665 140.298281) scale(0.1 -0.1)">
     <defs>
      <path id="DejaVuSans-28" d="M 1984 4856 
Q 1566 4138 1362 3434 
Q 1159 2731 1159 2009 
Q 1159 1288 1364 580 
Q 1569 -128 1984 -844 
L 1484 -844 
Q 1016 -109 783 600 
Q 550 1309 550 2009 
Q 550 2706 781 3412 
Q 1013 4119 1484 4856 
L 1984 4856 
z
" transform="scale(0.015625)"/>
      <path id="DejaVuSans-41" d="M 2188 4044 
L 1331 1722 
L 3047 1722 
L 2188 4044 
z
M 1831 4666 
L 2547 4666 
L 4325 0 
L 3669 0 
L 3244 1197 
L 1141 1197 
L 716 0 
L 50 0 
L 1831 4666 
z
" transform="scale(0.015625)"/>
      <path id="DejaVuSans-4b" d="M 628 4666 
L 1259 4666 
L 1259 2694 
L 3353 4666 
L 4166 4666 
L 1850 2491 
L 4331 0 
L 3500 0 
L 1259 2247 
L 1259 0 
L 628 0 
L 628 4666 
z
" transform="scale(0.015625)"/>
      <path id="DejaVuSans-43" d="M 4122 4306 
L 4122 3641 
Q 3803 3938 3442 4084 
Q 3081 4231 2675 4231 
Q 1875 4231 1450 3742 
Q 1025 3253 1025 2328 
Q 1025 1406 1450 917 
Q 1875 428 2675 428 
Q 3081 428 3442 575 
Q 3803 722 4122 1019 
L 4122 359 
Q 3791 134 3420 21 
Q 3050 -91 2638 -91 
Q 1578 -91 968 557 
Q 359 1206 359 2328 
Q 359 3453 968 4101 
Q 1578 4750 2638 4750 
Q 3056 4750 3426 4639 
Q 3797 4528 4122 4306 
z
" transform="scale(0.015625)"/>
      <path id="DejaVuSans-6c" d="M 603 4863 
L 1178 4863 
L 1178 0 
L 603 0 
L 603 4863 
z
" transform="scale(0.015625)"/>
      <path id="DejaVuSans-76" d="M 191 3500 
L 800 3500 
L 1894 563 
L 2988 3500 
L 3597 3500 
L 2284 0 
L 1503 0 
L 191 3500 
z
" transform="scale(0.015625)"/>
      <path id="DejaVuSans-4a" d="M 628 4666 
L 1259 4666 
L 1259 325 
Q 1259 -519 939 -900 
Q 619 -1281 -91 -1281 
L -331 -1281 
L -331 -750 
L -134 -750 
Q 284 -750 456 -515 
Q 628 -281 628 325 
L 628 4666 
z
" transform="scale(0.015625)"/>
      <path id="DejaVuSans-4f" d="M 2522 4238 
Q 1834 4238 1429 3725 
Q 1025 3213 1025 2328 
Q 1025 1447 1429 934 
Q 1834 422 2522 422 
Q 3209 422 3611 934 
Q 4013 1447 4013 2328 
Q 4013 3213 3611 3725 
Q 3209 4238 2522 4238 
z
M 2522 4750 
Q 3503 4750 4090 4092 
Q 4678 3434 4678 2328 
Q 4678 1225 4090 567 
Q 3503 -91 2522 -91 
Q 1538 -91 948 565 
Q 359 1222 359 2328 
Q 359 3434 948 4092 
Q 1538 4750 2522 4750 
z
" transform="scale(0.015625)"/>
      <path id="DejaVuSans-68" d="M 3513 2113 
L 3513 0 
L 2938 0 
L 2938 2094 
Q 2938 2591 2744 2837 
Q 2550 3084 2163 3084 
Q 1697 3084 1428 2787 
Q 1159 2491 1159 1978 
L 1159 0 
L 581 0 
L 581 4863 
L 1159 4863 
L 1159 2956 
Q 1366 3272 1645 3428 
Q 1925 3584 2291 3584 
Q 2894 3584 3203 3211 
Q 3513 2838 3513 2113 
z
" transform="scale(0.015625)"/>
      <path id="DejaVuSans-2d" d="M 313 2009 
L 1997 2009 
L 1997 1497 
L 313 1497 
L 313 2009 
z
" transform="scale(0.015625)"/>
      <path id="DejaVuSans-29" d="M 513 4856 
L 1013 4856 
Q 1481 4119 1714 3412 
Q 1947 2706 1947 2009 
Q 1947 1309 1714 600 
Q 1481 -109 1013 -844 
L 513 -844 
Q 928 -128 1133 580 
Q 1338 1288 1338 2009 
Q 1338 2731 1133 3434 
Q 928 4138 513 4856 
z
" transform="scale(0.015625)"/>
     </defs>
     <use xlink:href="#DejaVuSans-28"/>
     <use xlink:href="#DejaVuSans-41" x="39.013672"/>
     <use xlink:href="#DejaVuSans-50" x="107.421875"/>
     <use xlink:href="#DejaVuSans-49" x="167.724609"/>
     <use xlink:href="#DejaVuSans-20" x="197.216797"/>
     <use xlink:href="#DejaVuSans-4b" x="229.003906"/>
     <use xlink:href="#DejaVuSans-65" x="289.580078"/>
     <use xlink:href="#DejaVuSans-79" x="351.103516"/>
     <use xlink:href="#DejaVuSans-20" x="410.283203"/>
     <use xlink:href="#DejaVuSans-2022" x="442.070312"/>
     <use xlink:href="#DejaVuSans-20" x="501.054688"/>
     <use xlink:href="#DejaVuSans-43" x="532.841797"/>
     <use xlink:href="#DejaVuSans-6c" x="602.666016"/>
     <use xlink:href="#DejaVuSans-6f" x="630.449219"/>
     <use xlink:href="#DejaVuSans-75" x="691.630859"/>
     <use xlink:href="#DejaVuSans-64" x="755.009766"/>
     <use xlink:href="#DejaVuSans-45" x="818.486328"/>
     <use xlink:href="#DejaVuSans-76" x="881.669922"/>
     <use xlink:href="#DejaVuSans-65" x="940.849609"/>
     <use xlink:href="#DejaVuSans-6e" x="1002.373047"/>
     <use xlink:href="#DejaVuSans-74" x="1065.751953"/>
     <use xlink:href="#DejaVuSans-73" x="1104.960938"/>
     <use xlink:href="#DejaVuSans-20" x="1157.060547"/>
     <use xlink:href="#DejaVuSans-2022" x="1188.847656"/>
     <use xlink:href="#DejaVuSans-20" x="1247.832031"/>
     <use xlink:href="#DejaVuSans-4a" x="1279.619141"/>
     <use xlink:href="#DejaVuSans-53" x="1309.111328"/>
     <use xlink:href="#DejaVuSans-4f" x="1372.587891"/>
     <use xlink:href="#DejaVuSans-4e" x="1451.298828"/>
     <use xlink:href="#DejaVuSans-20" x="1526.103516"/>
     <use xlink:href="#DejaVuSans-53" x="1557.890625"/>
     <use xlink:href="#DejaVuSans-63" x="1621.367188"/>
     <use xlink:href="#DejaVuSans-68" x="1676.347656"/>
     <use xlink:href="#DejaVuSans-65" x="1739.726562"/>
     <use xlink:href="#DejaVuSans-6d" x="1801.25"/>
     <use xlink:href="#DejaVuSans-61" x="1898.662109"/>
     <use xlink:href="#DejaVuSans-20" x="1959.941406"/>
     <use xlink:href="#DejaVuSans-2022" x="1991.728516"/>
     <use xlink:href="#DejaVuSans-20" x="2050.712891"/>
     <use xlink:href="#DejaVuSans-5a" x="2082.5"/>
     <use xlink:href="#DejaVuSans-65" x="2151.005859"/>
     <use xlink:href="#DejaVuSans-72" x="2212.529297"/>
     <use xlink:href="#DejaVuSans-6f" x="2251.392578"/>
     <use xlink:href="#DejaVuSans-2d" x="2314.449219"/>
     <use xlink:href="#DejaVuSans-50" x="2350.533203"/>
     <use xlink:href="#DejaVuSans-48" x="2410.835938"/>
     <use xlink:href="#DejaVuSans-49" x="2486.03125"/>
     <use xlink:href="#DejaVuSans-29" x="2515.523438"/>
    </g>
   </g>
   <g id="text_3">
    <!-- Event Router &amp; Store -->
    <g style="fill: #333333" transform="translate(757.637991 129.100469) scale(0.1 -0.1)">
     <defs>
      <path id="DejaVuSans-26" d="M 1556 2509 
Q 1272 2256 1139 2004 
Q 1006 1753 1006 1478 
Q 1006 1022 1337 719 
Q 1669 416 2169 416 
Q 2466 416 2725 514 
Q 2984 613 3213 813 
L 1556 2509 
z
M 1997 2859 
L 3584 1234 
Q 3769 1513 3872 1830 
Q 3975 2147 3994 2503 
L 4575 2503 
Q 4538 2091 4375 1687 
Q 4213 1284 3922 891 
L 4794 0 
L 4006 0 
L 3559 459 
Q 3234 181 2878 45 
Q 2522 -91 2113 -91 
Q 1359 -91 881 339 
Q 403 769 403 1441 
Q 403 1841 612 2192 
Q 822 2544 1241 2853 
Q 1091 3050 1012 3245 
Q 934 3441 934 3628 
Q 934 4134 1281 4442 
Q 1628 4750 2203 4750 
Q 2463 4750 2720 4694 
Q 2978 4638 3244 4525 
L 3244 3956 
Q 2972 4103 2725 4179 
Q 2478 4256 2266 4256 
Q 1938 4256 1733 4082 
Q 1528 3909 1528 3634 
Q 1528 3475 1620 3314 
Q 1713 3153 1997 2859 
z
" transform="scale(0.015625)"/>
     </defs>
     <use xlink:href="#DejaVuSans-45"/>
     <use xlink:href="#DejaVuSans-76" x="63.183594"/>
     <use xlink:href="#DejaVuSans-65" x="122.363281"/>
     <use xlink:href="#DejaVuSans-6e" x="183.886719"/>
     <use xlink:href="#DejaVuSans-74" x="247.265625"/>
     <use xlink:href="#DejaVuSans-20" x="286.474609"/>
     <use xlink:href="#DejaVuSans-52" x="318.261719"/>
     <use xlink:href="#DejaVuSans-6f" x="383.244141"/>
     <use xlink:href="#DejaVuSans-75" x="444.425781"/>
     <use xlink:href="#DejaVuSans-74" x="507.804688"/>
     <use xlink:href="#DejaVuSans-65" x="547.013672"/>
     <use xlink:href="#DejaVuSans-72" x="608.537109"/>
     <use xlink:href="#DejaVuSans-20" x="649.650391"/>
     <use xlink:href="#DejaVuSans-26" x="681.4375"/>
     <use xlink:href="#DejaVuSans-20" x="759.416016"/>
     <use xlink:href="#DejaVuSans-53" x="791.203125"/>
     <use xlink:href="#DejaVuSans-74" x="854.679688"/>
     <use xlink:href="#DejaVuSans-6f" x="893.888672"/>
     <use xlink:href="#DejaVuSans-72" x="955.070312"/>
     <use xlink:href="#DejaVuSans-65" x="993.933594"/>
    </g>
    <!-- (Kafka / Kinesis / PubSub + Object Store) -->
    <g style="fill: #333333" transform="translate(708.142679 140.298281) scale(0.1 -0.1)">
     <defs>
      <path id="DejaVuSans-66" d="M 2375 4863 
L 2375 4384 
L 1825 4384 
Q 1516 4384 1395 4259 
Q 1275 4134 1275 3809 
L 1275 3500 
L 2222 3500 
L 2222 3053 
L 1275 3053 
L 1275 0 
L 697 0 
L 697 3053 
L 147 3053 
L 147 3500 
L 697 3500 
L 697 3744 
Q 697 4328 969 4595 
Q 1241 4863 1831 4863 
L 2375 4863 
z
" transform="scale(0.015625)"/>
      <path id="DejaVuSans-6b" d="M 581 4863 
L 1159 4863 
L 1159 1991 
L 2875 3500 
L 3609 3500 
L 1753 1863 
L 3688 0 
L 2938 0 
L 1159 1709 
L 1159 0 
L 581 0 
L 581 4863 
z
" transform="scale(0.015625)"/>
      <path id="DejaVuSans-2f" d="M 1625 4666 
L 2156 4666 
L 531 -594 
L 0 -594 
L 1625 4666 
z
" transform="scale(0.015625)"/>
      <path id="DejaVuSans-2b" d="M 2944 4013 
L 2944 2272 
L 4684 2272 
L 4684 1741 
L 2944 1741 
L 2944 0 
L 2419 0 
L 2419 1741 
L 678 1741 
L 678 2272 
L 2419 2272 
L 2419 4013 
L 2944 4013 
z
" transform="scale(0.015625)"/>
      <path id="DejaVuSans-6a" d="M 603 3500 
L 1178 3500 
L 1178 -63 
Q 1178 -731 923 -1031 
Q 669 -1331 103 -1331 
L -116 -1331 
L -116 -844 
L 38 -844 
Q 366 -844 484 -692 
Q 603 -541 603 -63 
L 603 3500 
z
M 603 4863 
L 1178 4863 
L 1178 4134 
L 603 4134 
L 603 4863 
z
" transform="scale(0.015625)"/>
     </defs>
     <use xlink:href="#DejaVuSans-28"/>
     <use xlink:href="#DejaVuSans-4b" x="39.013672"/>
     <use xlink:href="#DejaVuSans-61" x="102.839844"/>
     <use xlink:href="#DejaVuSans-66" x="164.119141"/>
     <use xlink:href="#DejaVuSans-6b" x="199.324219"/>
     <use xlink:href="#DejaVuSans-61" x="255.484375"/>
     <use xlink:href="#DejaVuSans-20" x="316.763672"/>
     <use xlink:href="#DejaVuSans-2f" x="348.550781"/>
     <use xlink:href="#DejaVuSans-20" x="382.242188"/>
     <use xlink:href="#DejaVuSans-4b" x="414.029297"/>
     <use xlink:href="#DejaVuSans-69" x="479.605469"/>
     <use xlink:href="#DejaVuSans-6e" x="507.388672"/>
     <use xlink:href="#DejaVuSans-65" x="570.767578"/>
     <use xlink:href="#DejaVuSans-73" x="632.291016"/>
     <use xlink:href="#DejaVuSans-69" x="684.390625"/>
     <use xlink:href="#DejaVuSans-73" x="712.173828"/>
     <use xlink:href="#DejaVuSans-20" x="764.273438"/>
     <use xlink:href="#DejaVuSans-2f" x="796.060547"/>
     <use xlink:href="#DejaVuSans-20" x="829.751953"/>
     <use xlink:href="#DejaVuSans-50" x="861.539062"/>
     <use xlink:href="#DejaVuSans-75" x="920.091797"/>
     <use xlink:href="#DejaVuSans-62" x="983.470703"/>
     <use xlink:href="#DejaVuSans-53" x="1046.947266"/>
     <use xlink:href="#DejaVuSans-75" x="1110.423828"/>
     <use xlink:href="#DejaVuSans-62" x="1173.802734"/>
     <use xlink:href="#DejaVuSans-20" x="1237.279297"/>
     <use xlink:href="#DejaVuSans-2b" x="1269.066406"/>
     <use xlink:href="#DejaVuSans-20" x="1352.855469"/>
     <use xlink:href="#DejaVuSans-4f" x="1384.642578"/>
     <use xlink:href="#DejaVuSans-62" x="1463.353516"/>
     <use xlink:href="#DejaVuSans-6a" x="1526.830078"/>
     <use xlink:href="#DejaVuSans-65" x="1554.613281"/>
     <use xlink:href="#DejaVuSans-63" x="1616.136719"/>
     <use xlink:href="#DejaVuSans-74" x="1671.117188"/>
     <use xlink:href="#DejaVuSans-20" x="1710.326172"/>
     <use xlink:href="#DejaVuSans-53" x="1742.113281"/>
     <use xlink:href="#DejaVuSans-74" x="1805.589844"/>
     <use xlink:href="#DejaVuSans-6f" x="1844.798828"/>
     <use xlink:href="#DejaVuSans-72" x="1905.980469"/>
     <use xlink:href="#DejaVuSans-65" x="1944.84375"/>
     <use xlink:href="#DejaVuSans-29" x="2006.367188"/>
    </g>
   </g>
   <g id="text_4">
    <!-- REST Polling -->
    <g style="fill: #333333" transform="translate(525.911808 274.630469) scale(0.1 -0.1)">
     <defs>
      <path id="DejaVuSans-54" d="M -19 4666 
L 3928 4666 
L 3928 4134 
L 2272 4134 
L 2272 0 
L 1638 0 
L 1638 4134 
L -19 4134 
L -19 4666 
z
" transform="scale(0.015625)"/>
     </defs>
     <use xlink:href="#DejaVuSans-52"/>
     <use xlink:href="#DejaVuSans-45" x="69.482422"/>
     <use xlink:href="#DejaVuSans-53" x="132.666016"/>
     <use xlink:href="#DejaVuSans-54" x="196.142578"/>
     <use xlink:href="#DejaVuSans-20" x="257.226562"/>
     <use xlink:href="#DejaVuSans-50" x="289.013672"/>
     <use xlink:href="#DejaVuSans-6f" x="345.691406"/>
     <use xlink:href="#DejaVuSans-6c" x="406.873047"/>
     <use xlink:href="#DejaVuSans-6c" x="434.65625"/>
     <use xlink:href="#DejaVuSans-69" x="462.439453"/>
     <use xlink:href="#DejaVuSans-6e" x="490.222656"/>
     <use xlink:href="#DejaVuSans-67" x="553.601562"/>
    </g>
    <!-- GET /nzheb/events/stream -->
    <g style="fill: #333333" transform="translate(490.458683 285.828281) scale(0.1 -0.1)">
     <defs>
      <path id="DejaVuSans-7a" d="M 353 3500 
L 3084 3500 
L 3084 2975 
L 922 459 
L 3084 459 
L 3084 0 
L 275 0 
L 275 525 
L 2438 3041 
L 353 3041 
L 353 3500 
z
" transform="scale(0.015625)"/>
     </defs>
     <use xlink:href="#DejaVuSans-47"/>
     <use xlink:href="#DejaVuSans-45" x="77.490234"/>
     <use xlink:href="#DejaVuSans-54" x="140.673828"/>
     <use xlink:href="#DejaVuSans-20" x="201.757812"/>
     <use xlink:href="#DejaVuSans-2f" x="233.544922"/>
     <use xlink:href="#DejaVuSans-6e" x="267.236328"/>
     <use xlink:href="#DejaVuSans-7a" x="330.615234"/>
     <use xlink:href="#DejaVuSans-68" x="383.105469"/>
     <use xlink:href="#DejaVuSans-65" x="446.484375"/>
     <use xlink:href="#DejaVuSans-62" x="508.007812"/>
     <use xlink:href="#DejaVuSans-2f" x="571.484375"/>
     <use xlink:href="#DejaVuSans-65" x="605.175781"/>
     <use xlink:href="#DejaVuSans-76" x="666.699219"/>
     <use xlink:href="#DejaVuSans-65" x="725.878906"/>
     <use xlink:href="#DejaVuSans-6e" x="787.402344"/>
     <use xlink:href="#DejaVuSans-74" x="850.78125"/>
     <use xlink:href="#DejaVuSans-73" x="889.990234"/>
     <use xlink:href="#DejaVuSans-2f" x="942.089844"/>
     <use xlink:href="#DejaVuSans-73" x="975.78125"/>
     <use xlink:href="#DejaVuSans-74" x="1027.880859"/>
     <use xlink:href="#DejaVuSans-72" x="1067.089844"/>
     <use xlink:href="#DejaVuSans-65" x="1105.953125"/>
     <use xlink:href="#DejaVuSans-61" x="1167.476562"/>
     <use xlink:href="#DejaVuSans-6d" x="1228.755859"/>
    </g>
   </g>
   <g id="text_5">
    <!-- Live Stream (SSE) -->
    <g style="fill: #333333" transform="translate(779.616138 274.630469) scale(0.1 -0.1)">
     <use xlink:href="#DejaVuSans-4c"/>
     <use xlink:href="#DejaVuSans-69" x="55.712891"/>
     <use xlink:href="#DejaVuSans-76" x="83.496094"/>
     <use xlink:href="#DejaVuSans-65" x="142.675781"/>
     <use xlink:href="#DejaVuSans-20" x="204.199219"/>
     <use xlink:href="#DejaVuSans-53" x="235.986328"/>
     <use xlink:href="#DejaVuSans-74" x="299.462891"/>
     <use xlink:href="#DejaVuSans-72" x="338.671875"/>
     <use xlink:href="#DejaVuSans-65" x="377.535156"/>
     <use xlink:href="#DejaVuSans-61" x="439.058594"/>
     <use xlink:href="#DejaVuSans-6d" x="500.337891"/>
     <use xlink:href="#DejaVuSans-20" x="597.75"/>
     <use xlink:href="#DejaVuSans-28" x="629.537109"/>
     <use xlink:href="#DejaVuSans-53" x="668.550781"/>
     <use xlink:href="#DejaVuSans-53" x="732.027344"/>
     <use xlink:href="#DejaVuSans-45" x="795.503906"/>
     <use xlink:href="#DejaVuSans-29" x="858.6875"/>
    </g>
    <!-- GET /nzheb/events/sse -->
    <g style="fill: #333333" transform="translate(767.428638 285.828281) scale(0.1 -0.1)">
     <use xlink:href="#DejaVuSans-47"/>
     <use xlink:href="#DejaVuSans-45" x="77.490234"/>
     <use xlink:href="#DejaVuSans-54" x="140.673828"/>
     <use xlink:href="#DejaVuSans-20" x="201.757812"/>
     <use xlink:href="#DejaVuSans-2f" x="233.544922"/>
     <use xlink:href="#DejaVuSans-6e" x="267.236328"/>
     <use xlink:href="#DejaVuSans-7a" x="330.615234"/>
     <use xlink:href="#DejaVuSans-68" x="383.105469"/>
     <use xlink:href="#DejaVuSans-65" x="446.484375"/>
     <use xlink:href="#DejaVuSans-62" x="508.007812"/>
     <use xlink:href="#DejaVuSans-2f" x="571.484375"/>
     <use xlink:href="#DejaVuSans-65" x="605.175781"/>
     <use xlink:href="#DejaVuSans-76" x="666.699219"/>
     <use xlink:href="#DejaVuSans-65" x="725.878906"/>
     <use xlink:href="#DejaVuSans-6e" x="787.402344"/>
     <use xlink:href="#DejaVuSans-74" x="850.78125"/>
     <use xlink:href="#DejaVuSans-73" x="889.990234"/>
     <use xlink:href="#DejaVuSans-2f" x="942.089844"/>
     <use xlink:href="#DejaVuSans-73" x="975.78125"/>
     <use xlink:href="#DejaVuSans-73" x="1027.880859"/>
     <use xlink:href="#DejaVuSans-65" x="1079.980469"/>
    </g>
   </g>
   <g id="text_6">
    <!-- Consumers -->
    <g style="fill: #333333" transform="translate(683.671429 403.36375) scale(0.1 -0.1)">
     <use xlink:href="#DejaVuSans-43"/>
     <use xlink:href="#DejaVuSans-6f" x="69.824219"/>
     <use xlink:href="#DejaVuSans-6e" x="131.005859"/>
     <use xlink:href="#DejaVuSans-73" x="194.384766"/>
     <use xlink:href="#DejaVuSans-75" x="246.484375"/>
     <use xlink:href="#DejaVuSans-6d" x="309.863281"/>
     <use xlink:href="#DejaVuSans-65" x="407.275391"/>
     <use xlink:href="#DejaVuSans-72" x="468.798828"/>
     <use xlink:href="#DejaVuSans-73" x="509.912109"/>
    </g>
    <!-- • TPO (Targets &amp; Productivity) -->
    <g style="fill: #333333" transform="translate(636.944866 414.561562) scale(0.1 -0.1)">
     <use xlink:href="#DejaVuSans-2022"/>
     <use xlink:href="#DejaVuSans-20" x="58.984375"/>
     <use xlink:href="#DejaVuSans-54" x="90.771484"/>
     <use xlink:href="#DejaVuSans-50" x="151.855469"/>
     <use xlink:href="#DejaVuSans-4f" x="212.158203"/>
     <use xlink:href="#DejaVuSans-20" x="290.869141"/>
     <use xlink:href="#DejaVuSans-28" x="322.65625"/>
     <use xlink:href="#DejaVuSans-54" x="361.669922"/>
     <use xlink:href="#DejaVuSans-61" x="406.253906"/>
     <use xlink:href="#DejaVuSans-72" x="467.533203"/>
     <use xlink:href="#DejaVuSans-67" x="506.896484"/>
     <use xlink:href="#DejaVuSans-65" x="570.373047"/>
     <use xlink:href="#DejaVuSans-74" x="631.896484"/>
     <use xlink:href="#DejaVuSans-73" x="671.105469"/>
     <use xlink:href="#DejaVuSans-20" x="723.205078"/>
     <use xlink:href="#DejaVuSans-26" x="754.992188"/>
     <use xlink:href="#DejaVuSans-20" x="832.970703"/>
     <use xlink:href="#DejaVuSans-50" x="864.757812"/>
     <use xlink:href="#DejaVuSans-72" x="923.310547"/>
     <use xlink:href="#DejaVuSans-6f" x="962.173828"/>
     <use xlink:href="#DejaVuSans-64" x="1023.355469"/>
     <use xlink:href="#DejaVuSans-75" x="1086.832031"/>
     <use xlink:href="#DejaVuSans-63" x="1150.210938"/>
     <use xlink:href="#DejaVuSans-74" x="1205.191406"/>
     <use xlink:href="#DejaVuSans-69" x="1244.400391"/>
     <use xlink:href="#DejaVuSans-76" x="1272.183594"/>
     <use xlink:href="#DejaVuSans-69" x="1331.363281"/>
     <use xlink:href="#DejaVuSans-74" x="1359.146484"/>
     <use xlink:href="#DejaVuSans-79" x="1398.355469"/>
     <use xlink:href="#DejaVuSans-29" x="1457.535156"/>
    </g>
    <!-- • Employer Dashboards -->
    <g style="fill: #333333" transform="translate(652.168304 425.759375) scale(0.1 -0.1)">
     <defs>
      <path id="DejaVuSans-70" d="M 1159 525 
L 1159 -1331 
L 581 -1331 
L 581 3500 
L 1159 3500 
L 1159 2969 
Q 1341 3281 1617 3432 
Q 1894 3584 2278 3584 
Q 2916 3584 3314 3078 
Q 3713 2572 3713 1747 
Q 3713 922 3314 415 
Q 2916 -91 2278 -91 
Q 1894 -91 1617 61 
Q 1341 213 1159 525 
z
M 3116 1747 
Q 3116 2381 2855 2742 
Q 2594 3103 2138 3103 
Q 1681 3103 1420 2742 
Q 1159 2381 1159 1747 
Q 1159 1113 1420 752 
Q 1681 391 2138 391 
Q 2594 391 2855 752 
Q 3116 1113 3116 1747 
z
" transform="scale(0.015625)"/>
     </defs>
     <use xlink:href="#DejaVuSans-2022"/>
     <use xlink:href="#DejaVuSans-20" x="58.984375"/>
     <use xlink:href="#DejaVuSans-45" x="90.771484"/>
     <use xlink:href="#DejaVuSans-6d" x="153.955078"/>
     <use xlink:href="#DejaVuSans-70" x="251.367188"/>
     <use xlink:href="#DejaVuSans-6c" x="314.84375"/>
     <use xlink:href="#DejaVuSans-6f" x="342.626953"/>
     <use xlink:href="#DejaVuSans-79" x="403.808594"/>
     <use xlink:href="#DejaVuSans-65" x="462.988281"/>
     <use xlink:href="#DejaVuSans-72" x="524.511719"/>
     <use xlink:href="#DejaVuSans-20" x="565.625"/>
     <use xlink:href="#DejaVuSans-44" x="597.412109"/>
     <use xlink:href="#DejaVuSans-61" x="674.414062"/>
     <use xlink:href="#DejaVuSans-73" x="735.693359"/>
     <use xlink:href="#DejaVuSans-68" x="787.792969"/>
     <use xlink:href="#DejaVuSans-62" x="851.171875"/>
     <use xlink:href="#DejaVuSans-6f" x="914.648438"/>
     <use xlink:href="#DejaVuSans-61" x="975.830078"/>
     <use xlink:href="#DejaVuSans-72" x="1037.109375"/>
     <use xlink:href="#DejaVuSans-64" x="1076.472656"/>
     <use xlink:href="#DejaVuSans-73" x="1139.949219"/>
    </g>
    <!-- • Government Analytics &amp; Equity -->
    <g style="fill: #333333" transform="translate(628.869085 436.957187) scale(0.1 -0.1)">
     <defs>
      <path id="DejaVuSans-71" d="M 947 1747 
Q 947 1113 1208 752 
Q 1469 391 1925 391 
Q 2381 391 2643 752 
Q 2906 1113 2906 1747 
Q 2906 2381 2643 2742 
Q 2381 3103 1925 3103 
Q 1469 3103 1208 2742 
Q 947 2381 947 1747 
z
M 2906 525 
Q 2725 213 2448 61 
Q 2172 -91 1784 -91 
Q 1150 -91 751 415 
Q 353 922 353 1747 
Q 353 2572 751 3078 
Q 1150 3584 1784 3584 
Q 2172 3584 2448 3432 
Q 2725 3281 2906 2969 
L 2906 3500 
L 3481 3500 
L 3481 -1331 
L 2906 -1331 
L 2906 525 
z
" transform="scale(0.015625)"/>
     </defs>
     <use xlink:href="#DejaVuSans-2022"/>
     <use xlink:href="#DejaVuSans-20" x="58.984375"/>
     <use xlink:href="#DejaVuSans-47" x="90.771484"/>
     <use xlink:href="#DejaVuSans-6f" x="168.261719"/>
     <use xlink:href="#DejaVuSans-76" x="229.443359"/>
     <use xlink:href="#DejaVuSans-65" x="288.623047"/>
     <use xlink:href="#DejaVuSans-72" x="350.146484"/>
     <use xlink:href="#DejaVuSans-6e" x="389.509766"/>
     <use xlink:href="#DejaVuSans-6d" x="452.888672"/>
     <use xlink:href="#DejaVuSans-65" x="550.300781"/>
     <use xlink:href="#DejaVuSans-6e" x="611.824219"/>
     <use xlink:href="#DejaVuSans-74" x="675.203125"/>
     <use xlink:href="#DejaVuSans-20" x="714.412109"/>
     <use xlink:href="#DejaVuSans-41" x="746.199219"/>
     <use xlink:href="#DejaVuSans-6e" x="814.607422"/>
     <use xlink:href="#DejaVuSans-61" x="877.986328"/>
     <use xlink:href="#DejaVuSans-6c" x="939.265625"/>
     <use xlink:href="#DejaVuSans-79" x="967.048828"/>
     <use xlink:href="#DejaVuSans-74" x="1026.228516"/>
     <use xlink:href="#DejaVuSans-69" x="1065.4375"/>
     <use xlink:href="#DejaVuSans-63" x="1093.220703"/>
     <use xlink:href="#DejaVuSans-73" x="1148.201172"/>
     <use xlink:href="#DejaVuSans-20" x="1200.300781"/>
     <use xlink:href="#DejaVuSans-26" x="1232.087891"/>
     <use xlink:href="#DejaVuSans-20" x="1310.066406"/>
     <use xlink:href="#DejaVuSans-45" x="1341.853516"/>
     <use xlink:href="#DejaVuSans-71" x="1405.037109"/>
     <use xlink:href="#DejaVuSans-75" x="1468.513672"/>
     <use xlink:href="#DejaVuSans-69" x="1531.892578"/>
     <use xlink:href="#DejaVuSans-74" x="1559.675781"/>
     <use xlink:href="#DejaVuSans-79" x="1598.884766"/>
    </g>
    <!-- • Audit/Compliance -->
    <g style="fill: #333333" transform="translate(663.004241 448.155) scale(0.1 -0.1)">
     <use xlink:href="#DejaVuSans-2022"/>
     <use xlink:href="#DejaVuSans-20" x="58.984375"/>
     <use xlink:href="#DejaVuSans-41" x="90.771484"/>
     <use xlink:href="#DejaVuSans-75" x="159.179688"/>
     <use xlink:href="#DejaVuSans-64" x="222.558594"/>
     <use xlink:href="#DejaVuSans-69" x="286.035156"/>
     <use xlink:href="#DejaVuSans-74" x="313.818359"/>
     <use xlink:href="#DejaVuSans-2f" x="353.027344"/>
     <use xlink:href="#DejaVuSans-43" x="386.71875"/>
     <use xlink:href="#DejaVuSans-6f" x="456.542969"/>
     <use xlink:href="#DejaVuSans-6d" x="517.724609"/>
     <use xlink:href="#DejaVuSans-70" x="615.136719"/>
     <use xlink:href="#DejaVuSans-6c" x="678.613281"/>
     <use xlink:href="#DejaVuSans-69" x="706.396484"/>
     <use xlink:href="#DejaVuSans-61" x="734.179688"/>
     <use xlink:href="#DejaVuSans-6e" x="795.458984"/>
     <use xlink:href="#DejaVuSans-63" x="858.837891"/>
     <use xlink:href="#DejaVuSans-65" x="913.818359"/>
    </g>
   </g>
   <g id="text_7">
    <!-- CloudEvents 1.0 + FHIR R4-aligned data -->
    <g style="fill: #333333" transform="translate(394.714286 48.78) scale(0.09 -0.09)">
     <defs>
      <path id="DejaVuSans-31" d="M 794 531 
L 1825 531 
L 1825 4091 
L 703 3866 
L 703 4441 
L 1819 4666 
L 2450 4666 
L 2450 531 
L 3481 531 
L 3481 0 
L 794 0 
L 794 531 
z
" transform="scale(0.015625)"/>
      <path id="DejaVuSans-2e" d="M 684 794 
L 1344 794 
L 1344 0 
L 684 0 
L 684 794 
z
" transform="scale(0.015625)"/>
      <path id="DejaVuSans-30" d="M 2034 4250 
Q 1547 4250 1301 3770 
Q 1056 3291 1056 2328 
Q 1056 1369 1301 889 
Q 1547 409 2034 409 
Q 2525 409 2770 889 
Q 3016 1369 3016 2328 
Q 3016 3291 2770 3770 
Q 2525 4250 2034 4250 
z
M 2034 4750 
Q 2819 4750 3233 4129 
Q 3647 3509 3647 2328 
Q 3647 1150 3233 529 
Q 2819 -91 2034 -91 
Q 1250 -91 836 529 
Q 422 1150 422 2328 
Q 422 3509 836 4129 
Q 1250 4750 2034 4750 
z
" transform="scale(0.015625)"/>
      <path id="DejaVuSans-46" d="M 628 4666 
L 3309 4666 
L 3309 4134 
L 1259 4134 
L 1259 2759 
L 3109 2759 
L 3109 2228 
L 1259 2228 
L 1259 0 
L 628 0 
L 628 4666 
z
" transform="scale(0.015625)"/>
      <path id="DejaVuSans-34" d="M 2419 4116 
L 825 1625 
L 2419 1625 
L 2419 4116 
z
M 2253 4666 
L 3047 4666 
L 3047 1625 
L 3713 1625 
L 3713 1100 
L 3047 1100 
L 3047 0 
L 2419 0 
L 2419 1100 
L 313 1100 
L 313 1709 
L 2253 4666 
z
" transform="scale(0.015625)"/>
     </defs>
     <use xlink:href="#DejaVuSans-43"/>
     <use xlink:href="#DejaVuSans-6c" x="69.824219"/>
     <use xlink:href="#DejaVuSans-6f" x="97.607422"/>
     <use xlink:href="#DejaVuSans-75" x="158.789062"/>
     <use xlink:href="#DejaVuSans-64" x="222.167969"/>
     <use xlink:href="#DejaVuSans-45" x="285.644531"/>
     <use xlink:href="#DejaVuSans-76" x="348.828125"/>
     <use xlink:href="#DejaVuSans-65" x="408.007812"/>
     <use xlink:href="#DejaVuSans-6e" x="469.53125"/>
     <use xlink:href="#DejaVuSans-74" x="532.910156"/>
     <use xlink:href="#DejaVuSans-73" x="572.119141"/>
     <use xlink:href="#DejaVuSans-20" x="624.21875"/>
     <use xlink:href="#DejaVuSans-31" x="656.005859"/>
     <use xlink:href="#DejaVuSans-2e" x="719.628906"/>
     <use xlink:href="#DejaVuSans-30" x="751.416016"/>
     <use xlink:href="#DejaVuSans-20" x="815.039062"/>
     <use xlink:href="#DejaVuSans-2b" x="846.826172"/>
     <use xlink:href="#DejaVuSans-20" x="930.615234"/>
     <use xlink:href="#DejaVuSans-46" x="962.402344"/>
     <use xlink:href="#DejaVuSans-48" x="1019.921875"/>
     <use xlink:href="#DejaVuSans-49" x="1095.117188"/>
     <use xlink:href="#DejaVuSans-52" x="1124.609375"/>
     <use xlink:href="#DejaVuSans-20" x="1194.091797"/>
     <use xlink:href="#DejaVuSans-52" x="1225.878906"/>
     <use xlink:href="#DejaVuSans-34" x="1295.361328"/>
     <use xlink:href="#DejaVuSans-2d" x="1358.984375"/>
     <use xlink:href="#DejaVuSans-61" x="1395.068359"/>
     <use xlink:href="#DejaVuSans-6c" x="1456.347656"/>
     <use xlink:href="#DejaVuSans-69" x="1484.130859"/>
     <use xlink:href="#DejaVuSans-67" x="1511.914062"/>
     <use xlink:href="#DejaVuSans-6e" x="1575.390625"/>
     <use xlink:href="#DejaVuSans-65" x="1638.769531"/>
     <use xlink:href="#DejaVuSans-64" x="1700.292969"/>
     <use xlink:href="#DejaVuSans-20" x="1763.769531"/>
     <use xlink:href="#DejaVuSans-64" x="1795.556641"/>
     <use xlink:href="#DejaVuSans-61" x="1859.033203"/>
     <use xlink:href="#DejaVuSans-74" x="1920.3125"/>
     <use xlink:href="#DejaVuSans-61" x="1959.521484"/>
    </g>
   </g>
   <g id="text_8">
    <!-- Validation at Gateway: API Key, Envelope, JSON Schema, Zero-PHI -->
    <g style="fill: #333333" transform="translate(394.714286 215.1) scale(0.08 -0.08)">
     <defs>
      <path id="DejaVuSans-56" d="M 1831 0 
L 50 4666 
L 709 4666 
L 2188 738 
L 3669 4666 
L 4325 4666 
L 2547 0 
L 1831 0 
z
" transform="scale(0.015625)"/>
      <path id="DejaVuSans-3a" d="M 750 794 
L 1409 794 
L 1409 0 
L 750 0 
L 750 794 
z
M 750 3309 
L 1409 3309 
L 1409 2516 
L 750 2516 
L 750 3309 
z
" transform="scale(0.015625)"/>
      <path id="DejaVuSans-2c" d="M 750 794 
L 1409 794 
L 1409 256 
L 897 -744 
L 494 -744 
L 750 256 
L 750 794 
z
" transform="scale(0.015625)"/>
     </defs>
     <use xlink:href="#DejaVuSans-56"/>
     <use xlink:href="#DejaVuSans-61" x="60.658203"/>
     <use xlink:href="#DejaVuSans-6c" x="121.9375"/>
     <use xlink:href="#DejaVuSans-69" x="149.720703"/>
     <use xlink:href="#DejaVuSans-64" x="177.503906"/>
     <use xlink:href="#DejaVuSans-61" x="240.980469"/>
     <use xlink:href="#DejaVuSans-74" x="302.259766"/>
     <use xlink:href="#DejaVuSans-69" x="341.46875"/>
     <use xlink:href="#DejaVuSans-6f" x="369.251953"/>
     <use xlink:href="#DejaVuSans-6e" x="430.433594"/>
     <use xlink:href="#DejaVuSans-20" x="493.8125"/>
     <use xlink:href="#DejaVuSans-61" x="525.599609"/>
     <use xlink:href="#DejaVuSans-74" x="586.878906"/>
     <use xlink:href="#DejaVuSans-20" x="626.087891"/>
     <use xlink:href="#DejaVuSans-47" x="657.875"/>
     <use xlink:href="#DejaVuSans-61" x="735.365234"/>
     <use xlink:href="#DejaVuSans-74" x="796.644531"/>
     <use xlink:href="#DejaVuSans-65" x="835.853516"/>
     <use xlink:href="#DejaVuSans-77" x="897.376953"/>
     <use xlink:href="#DejaVuSans-61" x="979.164062"/>
     <use xlink:href="#DejaVuSans-79" x="1040.443359"/>
     <use xlink:href="#DejaVuSans-3a" x="1092.373047"/>
     <use xlink:href="#DejaVuSans-20" x="1126.064453"/>
     <use xlink:href="#DejaVuSans-41" x="1157.851562"/>
     <use xlink:href="#DejaVuSans-50" x="1226.259766"/>
     <use xlink:href="#DejaVuSans-49" x="1286.5625"/>
     <use xlink:href="#DejaVuSans-20" x="1316.054688"/>
     <use xlink:href="#DejaVuSans-4b" x="1347.841797"/>
     <use xlink:href="#DejaVuSans-65" x="1408.417969"/>
     <use xlink:href="#DejaVuSans-79" x="1469.941406"/>
     <use xlink:href="#DejaVuSans-2c" x="1529.121094"/>
     <use xlink:href="#DejaVuSans-20" x="1560.908203"/>
     <use xlink:href="#DejaVuSans-45" x="1592.695312"/>
     <use xlink:href="#DejaVuSans-6e" x="1655.878906"/>
     <use xlink:href="#DejaVuSans-76" x="1719.257812"/>
     <use xlink:href="#DejaVuSans-65" x="1778.4375"/>
     <use xlink:href="#DejaVuSans-6c" x="1839.960938"/>
     <use xlink:href="#DejaVuSans-6f" x="1867.744141"/>
     <use xlink:href="#DejaVuSans-70" x="1928.925781"/>
     <use xlink:href="#DejaVuSans-65" x="1992.402344"/>
     <use xlink:href="#DejaVuSans-2c" x="2053.925781"/>
     <use xlink:href="#DejaVuSans-20" x="2085.712891"/>
     <use xlink:href="#DejaVuSans-4a" x="2117.5"/>
     <use xlink:href="#DejaVuSans-53" x="2146.992188"/>
     <use xlink:href="#DejaVuSans-4f" x="2210.46875"/>
     <use xlink:href="#DejaVuSans-4e" x="2289.179688"/>
     <use xlink:href="#DejaVuSans-20" x="2363.984375"/>
     <use xlink:href="#DejaVuSans-53" x="2395.771484"/>
     <use xlink:href="#DejaVuSans-63" x="2459.248047"/>
     <use xlink:href="#DejaVuSans-68" x="2514.228516"/>
     <use xlink:href="#DejaVuSans-65" x="2577.607422"/>
     <use xlink:href="#DejaVuSans-6d" x="2639.130859"/>
     <use xlink:href="#DejaVuSans-61" x="2736.542969"/>
     <use xlink:href="#DejaVuSans-2c" x="2797.822266"/>
     <use xlink:href="#DejaVuSans-20" x="2829.609375"/>
     <use xlink:href="#DejaVuSans-5a" x="2861.396484"/>
     <use xlink:href="#DejaVuSans-65" x="2929.902344"/>
     <use xlink:href="#DejaVuSans-72" x="2991.425781"/>
     <use xlink:href="#DejaVuSans-6f" x="3030.289062"/>
     <use xlink:href="#DejaVuSans-2d" x="3093.345703"/>
     <use xlink:href="#DejaVuSans-50" x="3129.429688"/>
     <use xlink:href="#DejaVuSans-48" x="3189.732422"/>
     <use xlink:href="#DejaVuSans-49" x="3264.927734"/>
    </g>
   </g>
   <g id="text_9">
    <!-- NZHEB — Producers POST /nzheb/events • Consumers GET /nzheb/events/(stream|sse) -->
    <g style="fill: #333333" transform="translate(42.428571 533.88) scale(0.09 -0.09)">
     <defs>
      <path id="DejaVuSans-2014" d="M 313 1978 
L 6088 1978 
L 6088 1528 
L 313 1528 
L 313 1978 
z
" transform="scale(0.015625)"/>
      <path id="DejaVuSans-7c" d="M 1344 4891 
L 1344 -1509 
L 813 -1509 
L 813 4891 
L 1344 4891 
z
" transform="scale(0.015625)"/>
     </defs>
     <use xlink:href="#DejaVuSans-4e"/>
     <use xlink:href="#DejaVuSans-5a" x="74.804688"/>
     <use xlink:href="#DejaVuSans-48" x="143.310547"/>
     <use xlink:href="#DejaVuSans-45" x="218.505859"/>
     <use xlink:href="#DejaVuSans-42" x="281.689453"/>
     <use xlink:href="#DejaVuSans-20" x="350.292969"/>
     <use xlink:href="#DejaVuSans-2014" x="382.080078"/>
     <use xlink:href="#DejaVuSans-20" x="482.080078"/>
     <use xlink:href="#DejaVuSans-50" x="513.867188"/>
     <use xlink:href="#DejaVuSans-72" x="572.419922"/>
     <use xlink:href="#DejaVuSans-6f" x="611.283203"/>
     <use xlink:href="#DejaVuSans-64" x="672.464844"/>
     <use xlink:href="#DejaVuSans-75" x="735.941406"/>
     <use xlink:href="#DejaVuSans-63" x="799.320312"/>
     <use xlink:href="#DejaVuSans-65" x="854.300781"/>
     <use xlink:href="#DejaVuSans-72" x="915.824219"/>
     <use xlink:href="#DejaVuSans-73" x="956.9375"/>
     <use xlink:href="#DejaVuSans-20" x="1009.037109"/>
     <use xlink:href="#DejaVuSans-50" x="1040.824219"/>
     <use xlink:href="#DejaVuSans-4f" x="1101.126953"/>
     <use xlink:href="#DejaVuSans-53" x="1179.837891"/>
     <use xlink:href="#DejaVuSans-54" x="1243.314453"/>
     <use xlink:href="#DejaVuSans-20" x="1304.398438"/>
     <use xlink:href="#DejaVuSans-2f" x="1336.185547"/>
     <use xlink:href="#DejaVuSans-6e" x="1369.876953"/>
     <use xlink:href="#DejaVuSans-7a" x="1433.255859"/>
     <use xlink:href="#DejaVuSans-68" x="1485.746094"/>
     <use xlink:href="#DejaVuSans-65" x="1549.125"/>
     <use xlink:href="#DejaVuSans-62" x="1610.648438"/>
     <use xlink:href="#DejaVuSans-2f" x="1674.125"/>
     <use xlink:href="#DejaVuSans-65" x="1707.816406"/>
     <use xlink:href="#DejaVuSans-76" x="1769.339844"/>
     <use xlink:href="#DejaVuSans-65" x="1828.519531"/>
     <use xlink:href="#DejaVuSans-6e" x="1890.042969"/>
     <use xlink:href="#DejaVuSans-74" x="1953.421875"/>
     <use xlink:href="#DejaVuSans-73" x="1992.630859"/>
     <use xlink:href="#DejaVuSans-20" x="2044.730469"/>
     <use xlink:href="#DejaVuSans-2022" x="2076.517578"/>
     <use xlink:href="#DejaVuSans-20" x="2135.501953"/>
     <use xlink:href="#DejaVuSans-43" x="2167.289062"/>
     <use xlink:href="#DejaVuSans-6f" x="2237.113281"/>
     <use xlink:href="#DejaVuSans-6e" x="2298.294922"/>
     <use xlink:href="#DejaVuSans-73" x="2361.673828"/>
     <use xlink:href="#DejaVuSans-75" x="2413.773438"/>
     <use xlink:href="#DejaVuSans-6d" x="2477.152344"/>
     <use xlink:href="#DejaVuSans-65" x="2574.564453"/>
     <use xlink:href="#DejaVuSans-72" x="2636.087891"/>
     <use xlink:href="#DejaVuSans-73" x="2677.201172"/>
     <use xlink:href="#DejaVuSans-20" x="2729.300781"/>
     <use xlink:href="#DejaVuSans-47" x="2761.087891"/>
     <use xlink:href="#DejaVuSans-45" x="2838.578125"/>
     <use xlink:href="#DejaVuSans-54" x="2901.761719"/>
     <use xlink:href="#DejaVuSans-20" x="2962.845703"/>
     <use xlink:href="#DejaVuSans-2f" x="2994.632812"/>
     <use xlink:href="#DejaVuSans-6e" x="3028.324219"/>
     <use xlink:href="#DejaVuSans-7a" x="3091.703125"/>
     <use xlink:href="#DejaVuSans-68" x="3144.193359"/>
     <use xlink:href="#DejaVuSans-65" x="3207.572266"/>
     <use xlink:href="#DejaVuSans-62" x="3269.095703"/>
     <use xlink:href="#DejaVuSans-2f" x="3332.572266"/>
     <use xlink:href="#DejaVuSans-65" x="3366.263672"/>
     <use xlink:href="#DejaVuSans-76" x="3427.787109"/>
     <use xlink:href="#DejaVuSans-65" x="3486.966797"/>
     <use xlink:href="#DejaVuSans-6e" x="3548.490234"/>
     <use xlink:href="#DejaVuSans-74" x="3611.869141"/>
     <use xlink:href="#DejaVuSans-73" x="3651.078125"/>
     <use xlink:href="#DejaVuSans-2f" x="3703.177734"/>
     <use xlink:href="#DejaVuSans-28" x="3736.869141"/>
     <use xlink:href="#DejaVuSans-73" x="3775.882812"/>
     <use xlink:href="#DejaVuSans-74" x="3827.982422"/>
     <use xlink:href="#DejaVuSans-72" x="3867.191406"/>
     <use xlink:href="#DejaVuSans-65" x="3906.054688"/>
     <use xlink:href="#DejaVuSans-61" x="3967.578125"/>
     <use xlink:href="#DejaVuSans-6d" x="4028.857422"/>
     <use xlink:href="#DejaVuSans-7c" x="4126.269531"/>
     <use xlink:href="#DejaVuSans-73" x="4159.960938"/>
     <use xlink:href="#DejaVuSans-73" x="4212.060547"/>
     <use xlink:href="#DejaVuSans-65" x="4264.160156"/>
     <use xlink:href="#DejaVuSans-29" x="4325.683594"/>
    </g>
   </g>
  </g>
 </g>
 <defs>
  <clipPath id="p8b90977791">
   <rect x="7.2" y="7.2" width="986.4" height="554.4"/>
  </clipPath>
 </defs>
</svg>
